Coordinates
version=1
nRows=36
nColumns=30
inDegrees=yes

Units are S.I. units (second, meters, Newtons, ...)
Angles are in degrees.

endheader
time	floatyaw	floatroll	floatpitch	floatx	floaty	floatz	pro_sup_l	deviation_l	flexion_l	cmc_flexion_l	cmc_abduction_l	mp_flexion_l	ip_flexion_l	2mcp_flexion_l	2mcp_abduction_l	2pm_flexion_l	2md_flexion_l	3mcp_flexion_l	3mcp_abduction_l	3pm_flexion_l	3md_flexion_l	4mcp_flexion_l	4mcp_abduction_l	4pm_flexion_l	4md_flexion_l	5mcp_flexion_l	5mcp_abduction_l	5pm_flexion_l	5md_flexion_l
-0.495000	-2.172711	-3.701800	97.553456	-0.087140	-0.182172	-0.024470	87.433707	4.700716	-1.419243	10.970386	9.573544	-23.012691	-36.063804	40.402516	9.737480	48.714922	33.525774	25.585869	5.529326	48.331444	34.030055	15.377246	-4.790896	63.067444	43.576085	9.784210	-10.282963	62.550301	42.673170
-0.485000	-2.172711	-3.701800	97.553456	-0.087035	-0.182218	-0.024506	87.180818	4.706524	-1.319867	10.749378	9.554173	-23.048159	-36.081687	40.682497	9.718623	48.815286	33.526599	25.892814	5.565883	48.552493	34.002553	15.749071	-4.783471	63.281689	43.537371	10.062836	-10.340480	62.744344	42.800417
-0.475000	-2.172711	-3.701800	97.553456	-0.087020	-0.182228	-0.024573	86.996671	4.702843	-1.289191	10.591982	9.542381	-23.045688	-36.075637	40.855408	9.700401	48.856664	33.500641	26.106086	5.589891	48.656844	33.898393	16.002023	-4.777354	63.405594	43.455077	10.254855	-10.366324	62.900073	42.896461
-0.465000	-2.172711	-3.701800	97.553456	-0.087046	-0.182212	-0.024653	86.872249	4.699805	-1.304155	10.483488	9.534279	-23.027900	-36.057916	40.951196	9.685708	48.853223	33.463357	26.249710	5.602031	48.673997	33.776016	16.167559	-4.775729	63.461146	43.380415	10.380827	-10.362070	63.042892	42.964195
-0.455000	-2.172711	-3.701800	97.553456	-0.087073	-0.182187	-0.024731	86.784171	4.702919	-1.337258	10.403941	9.526197	-23.019648	-36.040883	41.010558	9.673604	48.822986	33.429074	26.359668	5.604679	48.641862	33.681563	16.291232	-4.779149	63.473018	43.347108	10.470413	-10.333772	63.183779	43.003516
-0.445000	-2.172711	-3.701800	97.553456	-0.087081	-0.182166	-0.024799	86.706062	4.712339	-1.366344	10.336228	9.514871	-23.037129	-36.033881	41.067990	9.660120	48.779865	33.406961	26.466405	5.600418	48.591611	33.638415	16.410963	-4.785975	63.459385	43.365413	10.548975	-10.288444	63.315615	43.013477
-0.435000	-2.172711	-3.701800	97.553456	-0.087068	-0.182157	-0.024855	86.618687	4.724900	-1.379728	10.269824	9.496815	-23.083031	-36.041626	41.141862	9.640791	48.730603	33.400106	26.583610	5.591502	48.540799	33.647833	16.544122	-4.793458	63.429976	43.426556	10.630761	-10.232959	63.421687	42.995121
-0.425000	-2.172711	-3.701800	97.553456	-0.087043	-0.182160	-0.024898	86.514973	4.736944	-1.375600	10.200391	9.468955	-23.148648	-36.064332	41.232997	9.613554	48.676616	33.406973	26.707072	5.580165	48.495200	33.696774	16.686982	-4.798838	63.389758	43.512240	10.719794	-10.174863	63.489300	42.953062
-0.415000	-2.172711	-3.701800	97.553456	-0.087020	-0.182167	-0.024931	86.399360	4.746275	-1.357870	10.127384	9.430854	-23.220253	-36.099054	41.329500	9.580454	48.618178	33.423620	26.821733	5.568984	48.455521	33.767301	16.823217	-4.800244	63.344157	43.603516	10.814376	-10.122896	63.519335	42.895370
-0.405000	-2.172711	-3.701800	97.553456	-0.087007	-0.182173	-0.024958	86.283531	4.752681	-1.331772	10.051919	9.386620	-23.285867	-36.141359	41.414221	9.547309	48.558112	33.445443	26.911686	5.560677	48.423789	33.843438	16.935029	-4.797315	63.301977	43.685872	10.910553	-10.085580	63.526692	42.832145
-0.395000	-2.172711	-3.701800	97.553456	-0.087005	-0.182172	-0.024980	86.181173	4.757369	-1.301389	9.975821	9.344294	-23.339329	-36.186570	41.472003	9.521390	48.502983	33.468103	26.967943	5.557314	48.405495	33.914046	17.011638	-4.791331	63.274223	43.750614	11.003101	-10.068195	63.532642	42.773357
-0.385000	-2.172711	-3.701800	97.553456	-0.087011	-0.182162	-0.025000	86.103832	4.761994	-1.269216	9.901371	9.312370	-23.380452	-36.230281	41.495110	9.508038	48.461137	33.487931	26.991415	5.559438	48.406705	33.972687	17.052846	-4.784653	63.269638	43.794398	11.085320	-10.069895	63.554226	42.726546
-0.375000	-2.172711	-3.701800	97.553456	-0.087018	-0.182143	-0.025016	86.058757	4.767836	-1.236569	9.830917	9.295604	-23.412248	-36.268603	41.485798	9.507739	48.438485	33.502301	26.991175	5.565743	48.428851	34.016526	17.067848	-4.779677	63.289668	43.818540	11.149259	-10.082821	63.595994	42.695023
-0.365000	-2.172711	-3.701800	97.553456	-0.087022	-0.182114	-0.025024	86.048424	4.775279	-1.203698	9.766340	9.293355	-23.437424	-36.298702	41.455280	9.515294	48.434421	33.510182	26.979582	5.573752	48.465432	34.045880	17.070663	-4.777893	63.325874	43.828388	11.187052	-10.094384	63.647308	42.677085
-0.355000	-2.172711	-3.701800	97.553456	-0.087022	-0.182071	-0.025021	86.070876	4.783499	-1.169266	9.708750	9.302142	-23.456253	-36.319459	41.419124	9.521790	48.440848	33.512568	26.966371	5.581339	48.503585	34.064417	17.074034	-4.779563	63.361857	43.831889	11.193146	-10.092422	63.686140	42.666663
-0.345000	-2.172711	-3.701800	97.553456	-0.087018	-0.182011	-0.025001	86.120395	4.790225	-1.129539	9.658536	9.320737	-23.466727	-36.331347	41.390617	9.518565	48.445826	33.512001	26.954077	5.588219	48.530145	34.078588	17.083905	-4.784116	63.379726	43.836662	11.166785	-10.071180	63.688337	42.655565
-0.335000	-2.172711	-3.701800	97.553456	-0.087012	-0.181926	-0.024964	86.188847	4.791622	-1.077945	9.615351	9.353930	-23.466409	-36.335168	41.375155	9.501360	48.439909	33.510878	26.936947	5.596263	48.538518	34.095260	17.096600	-4.790762	63.368442	43.846448	11.113889	-10.035094	63.638969	42.636682
-0.325000	-2.172711	-3.701800	97.553456	-0.087003	-0.181811	-0.024908	86.268242	4.782501	-1.005504	9.577897	9.412336	-23.454300	-36.330657	41.368778	9.472842	48.420782	33.509485	26.903985	5.608207	48.531708	34.118448	17.100052	-4.798740	63.329529	43.859445	11.047553	-9.998535	63.540375	42.606785
-0.315000	-2.172711	-3.701800	97.553456	-0.086989	-0.181656	-0.024829	86.354559	4.757065	-0.902214	9.543725	9.508924	-23.431348	-36.316389	41.361666	9.442269	48.393044	33.505521	26.844537	5.625622	48.519462	34.147424	17.078894	-4.806919	63.276890	43.870377	10.986580	-9.981915	63.412332	42.567568
-0.305000	-2.172711	-3.701800	97.553456	-0.086960	-0.181444	-0.024720	86.452024	4.710134	-0.758791	9.509185	9.655336	-23.399760	-36.291289	41.343999	9.421975	48.364179	33.495985	26.753773	5.647669	48.512033	34.177696	17.021800	-4.813069	63.231264	43.875133	10.951815	-10.005846	63.283808	42.524639
-0.295000	-2.172711	-3.701800	97.553456	-0.086899	-0.181149	-0.024564	86.576244	4.638607	-0.567996	9.469468	9.860298	-23.362483	-36.256731	41.309908	9.421522	48.340414	33.480169	26.636254	5.671367	48.515567	34.204130	16.928856	-4.813622	63.212758	43.874172	10.960691	-10.084457	63.180689	42.485194
-0.285000	-2.172711	-3.701800	97.553456	-0.086774	-0.180733	-0.024333	86.754291	4.542746	-0.325133	9.419341	10.129569	-23.323403	-36.217804	41.256637	9.441746	48.324959	33.461335	26.507146	5.692662	48.532030	34.223807	16.816684	-4.804628	63.234324	43.871335	11.021234	-10.218344	63.116261	42.455478
-0.275000	-2.172711	-3.701800	97.553456	-0.086538	-0.180145	-0.023990	87.020222	4.426758	-0.027975	9.355775	10.464945	-23.287062	-36.182453	41.179460	9.471413	48.318023	33.445411	26.390940	5.707017	48.561597	34.236240	16.718789	-4.783687	63.296433	43.868136	11.127912	-10.388850	63.088655	42.438608
-0.265000	-2.172711	-3.701800	97.553456	-0.086123	-0.179324	-0.023486	87.405985	4.298449	0.323000	9.282851	10.861082	-23.256046	-36.157732	41.065784	9.487904	48.316473	33.437354	26.317234	5.709030	48.602298	34.240172	16.678874	-4.751396	63.381986	43.857334	11.262390	-10.557782	63.083693	42.432550
-0.255000	-2.172711	-3.701800	97.553456	-0.085445	-0.178199	-0.022765	87.929960	4.168664	0.722624	9.217011	11.302262	-23.226052	-36.143913	40.892551	9.460780	48.312288	33.437517	26.314094	5.691879	48.643750	34.228524	16.737070	-4.710449	63.452411	43.820822	11.401300	-10.676401	63.077391	42.428066
-0.245000	-2.172711	-3.701800	97.553456	-0.084406	-0.176692	-0.021764	88.587383	4.051772	1.155737	9.189238	11.763416	-23.181589	-36.129622	40.629354	9.355877	48.291506	33.440387	26.401392	5.647961	48.658212	34.184925	16.913404	-4.662200	63.448731	43.734584	11.529236	-10.702308	63.034436	42.407588
-0.235000	-2.172711	-3.701800	97.553456	-0.082900	-0.174732	-0.020420	89.346826	3.967687	1.588243	9.241557	12.217990	-23.096931	-36.092719	40.246491	9.139166	48.236821	33.436529	26.586908	5.571533	48.597981	34.085327	17.196629	-4.603321	63.302011	43.578687	11.650001	-10.616078	62.906189	42.346941
-0.225000	-2.172711	-3.701800	97.553456	-0.080826	-0.172258	-0.018675	90.154584	3.944225	1.957331	9.417458	12.651017	-22.945272	-36.009505	39.724060	8.782621	48.135901	33.416725	26.865321	5.462931	48.407825	33.905967	17.545829	-4.526375	62.954196	43.346408	11.787965	-10.428238	62.637044	42.221076
-0.215000	-2.172711	-3.701800	97.553456	-0.078094	-0.169236	-0.016484	90.946088	4.018062	2.166966	9.748135	13.072749	-22.713790	-35.869184	39.057211	8.274653	47.993641	33.376304	27.217496	5.332590	48.052478	33.635200	17.905979	-4.425556	62.383809	43.046493	11.977700	-10.173680	62.184091	42.012116
-0.205000	-2.172711	-3.701800	97.553456	-0.074625	-0.165663	-0.013820	91.662406	4.233690	2.094724	10.238935	13.528217	-22.416324	-35.684826	38.254738	7.633050	47.841947	33.317822	27.608638	5.202025	47.546172	33.283249	18.230629	-4.304030	61.624268	42.696824	12.248888	-9.898649	61.542630	41.715559
-0.195000	-2.172711	-3.701800	97.553456	-0.070352	-0.161567	-0.010682	92.269582	4.640148	1.612036	10.862909	14.099416	-22.093359	-35.492033	37.332710	6.912213	47.738800	33.251034	27.988412	5.099199	46.963050	32.883089	18.500075	-4.176692	60.761095	42.313434	12.615341	-9.647345	60.759970	41.340925
-0.185000	-2.172711	-3.701800	97.553456	-0.065221	-0.157005	-0.007096	92.776513	5.283398	0.615120	11.568363	14.897607	-21.795203	-35.334221	36.308100	6.195100	47.751531	33.189721	28.297778	5.048203	46.413408	32.478970	18.724552	-4.064750	59.902346	41.901648	13.069388	-9.450997	59.923165	40.906881
-0.175000	-2.172711	-3.701800	97.553456	-0.059195	-0.152058	-0.003118	93.243535	6.190891	-0.938619	12.302032	16.043709	-21.555824	-35.243768	35.196445	5.567246	47.926542	33.145430	28.482753	5.057074	45.990950	32.105987	18.929007	-3.984739	59.131680	41.454398	13.575737	-9.318327	59.122394	40.434395
-0.165000	-2.172711	-3.701800	97.553456	-0.052269	-0.146843	0.001163	93.772952	7.349225	-2.996251	13.039385	17.636644	-21.373008	-35.231980	34.013617	5.082091	48.256006	33.119210	28.508958	5.109907	45.717607	31.770771	19.127053	-3.938908	58.465420	40.957916	14.064011	-9.227611	58.407044	39.940610
-0.155000	-2.172711	-3.701800	97.553456	-0.044475	-0.141502	0.005638	94.478406	8.684997	-5.388949	13.804533	19.714877	-21.207773	-35.293468	32.778948	4.735693	48.658375	33.094768	28.369396	5.168314	45.519819	31.445359	19.301930	-3.913034	57.834742	40.400627	14.433919	-9.125739	57.754434	39.431741
-0.145000	-2.172711	-3.701800	97.553456	-0.035882	-0.136208	0.010196	95.440696	10.064708	-7.839934	14.662320	22.224048	-21.004016	-35.418725	31.517682	4.467649	48.990383	33.038739	28.082843	5.183592	45.258026	31.081478	19.413155	-3.882904	57.104450	39.780171	14.592309	-8.942513	57.064108	38.892676
